# xmcd
#
# Track frame offsets: 
#        150
#        16123
#        33198
#        48150
#        66419
#        84202
#        97452
#        114950
#        131744
#        146945
#        162429
#
# Disc length: 2424 seconds
#
# Revision: 0
# Processed by: cddbd v1.5.1PL0 Copyright (c) Steve Scherf et al.
# Submitted via: ExactAudioCopy v0.95a5
#
DISCID=9309760b
DTITLE=Xtreme - Xtreme
DYEAR=2005
DGENRE=Latin
TTITLE0=Te Extraño
TTITLE1=Ahora Vete
TTITLE2=Me Cambiaste La Vida (f. Tito Nieves)
TTITLE3=Honey, I Do
TTITLE4=Mi Niña
TTITLE5=Ese Fui Yo
TTITLE6=Pardon Me
TTITLE7=Caricias
TTITLE8=Amor Destrozado
TTITLE9=Ya No Aguanto Mas
TTITLE10=Te Extraño (R&B Version)
EXTD=
EXTT0=
EXTT1=
EXTT2=
EXTT3=
EXTT4=
EXTT5=
EXTT6=
EXTT7=
EXTT8=
EXTT9=
EXTT10=
PLAYORDER=
